<svg xmlns="http://www.w3.org/2000/svg" viewBox="0 0 1100 600">
<defs><style>
.bg{fill:#fbfdff}.axis{stroke:#60758a;stroke-width:4}.grid{stroke:#dce6ef;stroke-width:2}.h{font:700 30px system-ui;fill:#233247}.s{font:500 20px system-ui;fill:#62748a}.tick{font:500 18px ui-monospace,monospace;fill:#748398}.p{fill:#f0c96b}.c{fill:#9ed2c8}.co{fill:#9dbcf3}.m{fill:#c3a9e8}.label{font:700 21px system-ui;fill:#28394c}.ex{font:500 16px system-ui;fill:#53677e}
</style></defs><rect class="bg" width="1100" height="600" rx="28"/>
<text class="h" x="65" y="55">Representative strength ranges from the Week 1 source</text>
<g transform="translate(100 95)"><line class="axis" x1="80" y1="420" x2="950" y2="420"/><line class="axis" x1="80" y1="420" x2="80" y2="20"/>
<g class="grid"><line x1="80" y1="286" x2="950" y2="286"/><line x1="80" y1="153" x2="950" y2="153"/><line x1="80" y1="20" x2="950" y2="20"/></g>
<text class="tick" x="30" y="426">0</text><text class="tick" x="16" y="292">700</text><text class="tick" x="5" y="159">1400</text><text class="tick" x="5" y="26">2100</text><text class="s" transform="translate(18 300) rotate(-90)">Strength (MPa)</text>
<rect class="p" x="150" y="350" width="150" height="70" rx="9"/><text class="label" x="170" y="338">Polymers</text><text class="ex" x="165" y="382">PEEK · nylon</text><text class="ex" x="165" y="405">polyethylene</text>
<rect class="c" x="350" y="245" width="150" height="175" rx="9"/><text class="label" x="365" y="233">Ceramics</text><text class="ex" x="365" y="280">SiC · Si₃N₄</text><text class="ex" x="365" y="305">ZrO₂ · Al₂O₃</text>
<rect class="co" x="550" y="100" width="150" height="320" rx="9"/><text class="label" x="548" y="88">Composites</text><text class="ex" x="565" y="140">carbon-epoxy</text><text class="ex" x="565" y="165">Kevlar-epoxy</text><text class="ex" x="565" y="190">glass-polyester</text>
<rect class="m" x="750" y="20" width="160" height="400" rx="9"/><text class="label" x="748" y="8">Metals &amp; alloys</text><text class="ex" x="765" y="60">cobalt alloy</text><text class="ex" x="765" y="85">high-strength steel</text><text class="ex" x="765" y="110">Ti · Ni alloys</text><text class="ex" x="765" y="135">Al · brass · Zn · Pb</text>
</g><text class="s" x="65" y="575">Schematic reconstruction of lecture slide 10: the source emphasizes broad overlapping ranges, not one fixed strength per class.</text></svg>